<?xml version="1.0" encoding="UTF-8" standalone="no"?>
<svg
   xmlns:dc="http://purl.org/dc/elements/1.1/"
   xmlns:cc="http://creativecommons.org/ns#"
   xmlns:rdf="http://www.w3.org/1999/02/22-rdf-syntax-ns#"
   xmlns:svg="http://www.w3.org/2000/svg"
   xmlns="http://www.w3.org/2000/svg"
   id="svg1483"
   version="1.1"
   viewBox="0 0 51.856323 52.44136"
   height="52.44136mm"
   width="51.856323mm">
  <defs
     id="defs1477" />
  <metadata
     id="metadata1480">
    <rdf:RDF>
      <cc:Work
         rdf:about="">
        <dc:format>image/svg+xml</dc:format>
        <dc:type
           rdf:resource="http://purl.org/dc/dcmitype/StillImage" />
        <dc:title></dc:title>
      </cc:Work>
    </rdf:RDF>
  </metadata>
  <g
     transform="translate(273.12459,18.750443)"
     id="layer1">
    <path
       transform="matrix(0.06120809,0,0,0.06227054,-254.01053,-2.2183061)"
       d="m 113.85682,153.80516 c 0.62312,0.87773 -0.87574,1.273 -1.45885,1.03567 -1.58019,-0.64314 -1.48736,-2.79118 -0.61249,-3.95337 1.56493,-2.07889 4.67013,-1.82676 6.44789,-0.18931 2.60893,2.40301 2.18104,6.57633 -0.23387,8.94241 -3.21869,3.15362 -8.49242,2.54196 -11.43693,-0.65704 -3.70537,-4.02562 -2.90637,-10.41329 1.08022,-13.93146 4.8283,-4.26098 12.33685,-3.27281 16.42598,1.5034 4.8189,5.6286 3.64053,14.2621 -1.92658,18.9205 -6.42745,5.37831 -16.18847,4.0091 -21.41502,-2.34976 -5.938746,-7.22533 -4.378262,-18.11562 2.77294,-23.90954 8.02256,-6.4999 20.04336,-4.74786 26.40406,3.19612 7.06159,8.81931 5.11778,21.97153 -3.61929,28.89858 -9.61572,7.62368 -23.90004,5.48795 -31.393112,-4.04247 -8.186076,-10.41184 -5.858304,-25.8288 4.465652,-33.88763 11.20776,-8.74872 27.75777,-6.22882 36.38215,4.88883 9.31157,12.00351 6.59946,29.68692 -5.31201,38.87667 -12.79912,9.87458 -31.616206,6.97021 -41.371193,-5.73519 -10.437721,-13.59462 -7.341035,-33.54561 6.158367,-43.86571 14.390036,-11.00098 35.475116,-7.71194 46.360236,6.58154 11.56433,15.18537 8.0829,37.40471 -7.00472,48.85476 -15.98063,12.12776 -39.334374,8.45392 -51.349283,-7.4279 -12.691251,-16.77584 -8.824975,-41.2641 7.851082,-53.8438 17.571001,-13.25481 43.193881,-9.19608 56.338321,8.27426 13.81842,18.36611 9.56721,45.1237 -8.69744,58.83284 -19.16119,14.38208 -47.053572,9.93837 -61.327364,-9.12062 -14.945771,-19.95624 -10.309561,-48.98348 9.543797,-63.82188 20.751267,-15.50951 50.913417,-10.68078 66.316407,9.96697 16.07327,21.54627 11.05201,52.84339 -10.39015,68.81093 C 120.51438,211.29002 88.082229,206.07623 71.550166,183.83963 54.34929,160.70344 59.755634,127.13622 82.786678,110.03966 106.7178,92.274941 141.42013,97.873839 159.08117,121.69935 c 18.32858,24.72604 12.53712,60.56351 -12.08287,78.78901 -25.52094,18.89246 -62.49359,12.90843 -81.283535,-12.50604 -19.456353,-26.31584 -13.279751,-64.42369 12.929227,-83.77806 27.110708,-20.02027 66.353798,-13.651089 86.272578,13.3524 20.5842,27.90558 14.02243,68.28393 -13.77558,88.7671 C 122.44056,227.4719 80.926927,220.71755 59.879365,192.125 38.16728,162.62972 45.114224,119.98079 74.501307,98.368856 104.79142,76.092809 148.57568,83.232348 170.75197,113.41398 c 22.84002,31.08494 15.50789,76.00454 -15.4683,98.74519 C 123.4039,235.56317 77.348957,228.03843 54.043965,196.26769 30.07597,163.5931 37.793314,116.40278 70.358621,92.533456 103.82802,68.001461 152.15372,75.911413 176.58737,109.27129 c 25.09601,34.2642 16.99344,83.7253 -17.16101,108.72328 -35.059,25.66001 -85.65551,17.36484 -111.217796,-17.5842 C 21.984527,164.55658 30.472315,112.82465 66.215936,86.698055 102.86451,59.909992 155.73188,68.590396 182.42277,105.12861 c 27.3521,37.44336 18.47908,91.44617 -18.85372,118.70136 C 125.33091,251.7461 70.192639,242.68046 42.373164,204.55306 13.892985,165.52014 23.151249,109.24641 62.07325,80.862655 c 39.82769,-29.044227 97.23689,-19.59334 126.18492,20.123265 29.60828,40.62245 19.96477,99.16713 -20.54644,128.67945 C 126.29451,259.8377 66.614347,250.00157 36.537763,208.69574 5.8013659,166.48376 15.83013,105.66811 57.930565,75.027254 100.9373,43.726792 162.88846,53.948185 194.09358,96.843235 225.95811,140.64473 215.54408,203.73139 171.85442,235.50077 127.25817,267.92937 63.035992,257.32272 30.702363,212.83843 -2.2903145,167.44743 8.5089704,102.08974 53.787879,69.191854 99.973626,35.635099 166.46684,46.627016 199.92898,92.700549 234.04981,139.68104 222.86526,207.30979 175.9971,241.33617 128.22186,276.02109 59.457586,264.6439 24.866962,216.98111 -10.382044,168.41113 1.1877768,98.511319 49.645194,63.356454 99.009914,27.543359 170.04527,39.305815 205.76438,88.557864 242.14156,138.71732 230.18647,210.88823 180.13979,247.17157 129.18559,284.11285 55.879138,271.96512 19.031562,221.1238 -18.473813,169.37487 -6.133444,94.932862 45.502508,57.521053 98.046172,19.45158 173.62374,31.984589 211.59978,84.415178 250.23335,137.75357 237.5077,214.4667 184.28247,253.00697 130.14935,292.20464 52.300656,279.28635 13.196161,225.26649 -26.565616,170.33863 -13.454687,91.354372 41.359823,51.685653 97.082405,11.35977 177.20223,24.66334 217.43518,80.272493 258.32517,136.7898 244.82895,218.0452 188.42516,258.84237 131.11312,300.29647 48.722145,286.60761 7.360761,229.40917 -34.657446,171.30241 -20.77595,87.775855 37.217137,45.850252 96.118619,3.267934 180.78076,17.342074 223.27058,76.129807 266.41701,135.82601 252.15023,221.62373 192.56784,264.67777 132.07692,308.38831 45.14361,293.92889 1.5253605,233.55186 -42.7493,172.26621 -28.097228,84.197314 33.074452,40.014852 95.154815,-4.8239249 184.3593,10.020792 229.10598,71.987122 274.50887,134.8622 259.47151,225.20228 196.71053,270.51317 133.04073,316.48018 41.565054,301.25018 -4.3100399,237.69454 -50.841173,173.23003 -35.41852,80.618754 28.931766,34.179451 94.190996,-12.915803 187.93787,2.6994965 234.94138,67.844436 282.60075,133.89838 266.79281,228.78085 200.85321,276.34857 134.00456,324.57207 37.98648,308.57148 -10.14544,241.83723 -58.933064,174.19386 -42.739824,77.040176 24.789081,28.344051 93.227165,-21.007697 191.51645,-4.6218098 240.77678,63.701751 290.69265,132.93455 274.11412,232.35944 204.9959,282.18397 134.96839,332.66397 34.407891,315.89279 -15.980841,245.97991 -67.024969,175.1577 -50.061137,73.461583 20.646395,22.50865 92.263323,-29.099606 195.09505,-11.943126 246.61218,59.559065 298.78457,131.9707 281.43544,235.93804 209.13859,288.01937 135.93224,340.75589 30.829289,323.21411 -21.816241,250.1226 -75.116887,176.12154 -57.38246,69.882978 16.50371,16.67325 91.299471,-37.191527 198.67366,-19.264451 252.44758,55.41638 306.87649,131.00685 288.75676,239.51665 213.28127,293.85477 136.8961,348.84781 27.250675,330.53544 -27.651642,254.26528 -83.208817,177.0854 -64.703791,66.304361 12.361024,10.83785 90.335612,-45.28346 202.25227,-26.585783 258.28298,51.273694 314.96842,130.04299 296.0781,243.09527 217.42396,299.69017 137.85996,356.93975 23.67205,337.85677 -33.487042,258.40797 -91.300757,178.04927 -72.025128,62.725734 8.2183388,5.0024491 89.371744,-53.375402 205.8309,-33.907122 264.11838,47.131009 323.06037,129.07912 303.39944,246.6739 221.56664,305.52557 138.82383,365.0317 20.093416,345.17811 -39.322443,262.55065 -99.392705,179.01314 -79.346471,59.147098 4.0756533,-0.83295134 88.407871,-61.467352 209.40954,-41.228467 269.95378,42.988323 331.15232,128.11524 310.72078,250.25254 225.70933,311.36097 139.78771,373.12365 16.514774,352.49946 -45.157843,266.69334 -107.48466,179.97702 -86.66782,55.568454 -0.06703216,-6.6683518 87.443991,-69.55931 212.98819,-48.549817 275.78918,38.845638 339.24428,127.15136 318.04213,253.83119 229.85201,317.19637 140.75159,381.21561 12.936125,359.82081 -50.993243,270.83603 -115.57662,180.9409 -93.989174,51.989803 -4.2097177,-12.503752 86.480106,-77.651275 216.56684,-55.871172 281.62458,34.702952 347.33625,126.18748 325.36349,257.40985 233.9947,323.03177 141.71548,389.30758 9.3574693,367.14217 -56.828644,274.97871 -123.66859,181.90479 -101.31053,48.411146 -8.3524032,-18.339153 85.516217,-85.743246 220.1455,-63.192531 287.45998,30.560267 355.42822,125.22359 332.68485,260.98851 238.13738,328.86717 142.67937,397.39955 5.7788076,374.46353 -62.664044,279.1214 -131.76057,182.86868 -108.63189,44.832483 -12.495089,-24.174553 84.552323,-93.835223 223.72416,-70.513893 293.29538,26.417581 363.5202,124.25969 340.00621,264.56717 242.28007,334.70257 143.64326,405.49153 2.2001406,381.7849 -68.499445,283.26408 -139.85255,183.83258 -115.95326,41.253814 -16.637774,-30.009954 83.588426,-101.9272 227.30283,-77.83526 299.13078,22.274896 371.61218,123.29579 347.32758,268.14584 246.42276,340.53797 144.60716,413.58352 -1.3785313,389.10627 -74.334845,287.40677 -147.94454,184.79648 -123.27463,37.675141 -20.78046,-35.845354 82.624525,-110.01919 230.88151,-85.156629 304.96618,18.13221 379.70417,122.33189 354.64895,271.72452 250.56544,346.37338 145.57107,421.67551 -4.9572075,396.42764 -80.170246,291.54945 -156.03652,185.76038 -130.596,34.096464 -24.923145,-41.680754 81.660621,-118.11118 234.46019,-92.478002 310.80158,13.989525 387.79616,121.36799 361.97032,275.3032 254.70813,352.20878 146.53497,429.7675 -8.5358878,403.74901 -86.005646,295.69214 -164.12852,186.72429 -137.91737,30.517783 -29.065831,-47.516155 80.696714,-126.20318 238.03887,-99.799376 316.63698,9.8468393 395.88815,120.40408 369.2917,278.88188 258.85081,358.04418 147.49888,437.85949 -12.114572,411.07039 -91.841047,299.83482 -172.22051,187.6882 -145.23875,26.939098 -33.208516,-53.351555 79.732804,-134.29517 241.61755,-107.12075 322.47239,5.7041538 403.98015,119.44017 376.61308,282.46057 262.9935,363.87958 148.46279,445.95149 -15.693259,418.39176 -97.676447,303.97751 -180.31251,188.65211 -152.56013,23.36041 -37.351202,-59.186956 78.768892,-142.38717 245.19624,-114.44213 328.30779,1.5614683 412.07215,118.47626 383.93446,286.03926 267.13618,369.71498 149.4267,454.0435 -19.27195,425.71314 -103.51185,308.1202 -188.40452,189.61602 -159.88151,19.781719 -41.493887,-65.022356 77.804978,-150.47918 248.77493,-121.76351 334.14319,-2.5812172 420.16416,117.51234 391.25584,289.61795 271.27887,375.55038 150.39062,462.1355 -22.850643,433.03453 -109.34725,312.26288 -196.49652,190.57994 -167.20289,16.203025 -45.636573,-70.857757 76.841062,-158.57118 252.35363,-129.0849 339.97859,-6.7239027 428.25617,116.54842 398.57722,293.19664 275.42155,381.38578 151.35454,470.22751 -26.429339,440.35591 -115.18265,316.40557 -204.58853,191.54386 -174.52428,12.624328 -49.779258,-76.693157 75.877144,-166.66319 255.93233,-136.40628 345.81399,-10.866588 436.34817,115.58451 405.89861,296.77534 279.56424,387.22118 152.31845,478.31952 -30.008037,447.6773 -121.01805,320.54825 -212.68054,192.50778 -181.84566,9.0456293 -53.921944,-82.528558 74.913224,-174.7552 259.51103,-143.72767 351.64939,-15.009274 444.44019,114.62058 413.22,300.35404 283.70692,393.05658 153.28238,486.41153 -33.586738,454.99868 -126.85345,324.69094 -220.77255,193.4717 -189.16705,5.4669281 -58.064629,-88.363958 73.949302,-182.84722 263.08973,-151.04906 357.48479,-19.151959 452.5322,113.65666 420.54139,303.93274 287.84961,398.89198 154.2463,494.50355 -37.165441,462.32007 -132.68885,328.83362 -228.86457,194.43562 -196.48844,1.8882248 -62.207315,-94.199359 72.985379,-190.93923 266.66843,-158.37045 363.32019,-23.294645 460.62422,112.69274 427.86277,307.51145 291.9923,404.72738 155.21022,502.59556 -40.744145,469.64146 -138.52425,332.97631 -236.95659,195.39954 -203.80983,-1.6904804 -66.35,-100.03476 72.021455,-199.03125 270.24714,-165.69184 369.15559,-27.43733 468.71623,111.72882 435.18417,311.09015 296.13498,410.56278 156.17415,510.68758 -44.322852,476.96286 -144.35965,337.11899 -245.0486,196.36347 -211.13122,-5.2691873 -70.492686,-105.87016 71.057529,-207.12327 273.82584,-173.01323 374.99099,-31.580016 476.80825,110.76489 442.50556,314.66886 300.27767,416.39818 157.13807,518.7796 -47.90156,484.28425 -150.19505,341.26168 -253.14063,197.3274 -218.45262,-8.847896 -74.635371,-111.70556 70.093602,-215.21529 277.40455,-180.33462 380.82639,-35.722701 484.90027,109.80096 449.82695,318.24757 304.42035,422.23358 158.102,526.87162 -51.48027,491.60564 -156.03045,345.40437 -261.23265,198.29132 -225.77401,-12.426606 -78.778057,-117.54096 69.129674,-223.30731 280.98326,-187.65602 386.66179,-39.865387 492.9923,108.83703 457.14835,321.82628 308.56304,428.06898 159.06593,534.96364 -55.058981,498.92704 -161.86585,349.54705 -269.32467,199.25525 -233.09541,-16.005318 -82.920742,-123.37636 68.165745,-231.39933 284.56198,-194.97741 392.49719,-44.008072 501.08432,107.8731 464.46974,325.405 312.70572,433.90438 160.02986,543.05567 -58.637694,506.24843 -167.70125,353.68974 -277.41669,200.21918 -240.4168,-19.584031 -87.063428,-129.21176 67.201815,-239.49136 288.14069,-202.29881 398.33259,-48.150758 509.17635,106.90917 471.79114,328.98371 316.84841,439.73978 160.99379,551.14769 -62.216408,513.56983 -173.53665,357.83242 -285.50872,201.18311 -247.7382,-23.162745 -91.206113,-135.04716 66.237884,-247.58339 291.7194,-209.62021 404.16799,-52.293443 517.26837,105.94524 479.11254,332.56242 320.99109,445.57518 161.95772,559.23972 -65.795123,520.89123 -179.37205,361.97511 -293.60075,202.14704 -255.0596,-26.741461 -95.348799,-140.88256 65.273952,-255.67541 295.29812,-216.9416 410.00339,-56.436129 525.3604,104.98131 486.43393,336.14114 325.13378,451.41058 162.92165,567.33175 -69.37384,528.21262 -185.20745,366.11779 -301.69278,203.11098 -262.38099,-30.320178 -99.491484,-146.71796 64.310019,-263.76744 298.87684,-224.263 415.83879,-60.578814 533.45243,104.01738 493.75533,339.71986 329.27647,457.24598 163.88559,575.42378 -72.952557,535.53402 -191.04285,370.26048 -309.7848,204.07491 -269.70239,-33.898895 -103.63417,-152.55336 63.346086,-271.85947 302.45555,-231.5844 421.67419,-64.7215 541.54446,103.05344 501.07673,343.29858 333.41915,463.08138 164.84952,583.51581 -76.531276,542.85542 -196.87825,374.40316 -317.87683,205.03884 -277.02379,-37.477614 -107.77686,-158.38876 62.382151,-279.9515 306.03427,-238.9058 427.50959,-68.864185 549.63649,102.08951 508.39813,346.8773 337.56184,468.91678 165.81345,591.60784 -80.109995,550.17682 -202.71366,378.54585 -325.96887,206.00278 -284.34519,-41.056334 -111.91954,-164.22416 61.418216,-288.04353 309.61299,-246.2272 433.34499,-73.006871 557.72852,101.12557 515.71953,350.45602 341.70452,474.75219 166.77739,599.69987 -83.688716,557.49822 -208.54906,382.68853 -334.0609,206.96672 -291.66659,-44.635055 -116.06223,-170.05956 60.45428,-296.13556 313.19171,-253.5486 439.18039,-77.149556 565.82055,100.16164 523.04093,354.03474 345.84721,480.58759 167.74133,607.7919 -87.267437,564.81963 -214.38446,386.83122 -342.15293,207.93065 -298.988,-48.213776 -120.20491,-175.89496 59.490344,-304.2276 316.77044,-260.87001 445.01579,-81.292242 573.91259,99.197701 530.36234,357.61346 349.98989,486.42299 168.70526,615.88393 -90.84616,572.14103 -220.21986,390.97391 -350.24496,208.89459 -306.3094,-51.792499 -124.3476,-181.73037 58.526407,-312.31963 320.34916,-268.19141 450.8512,-85.434927 582.00462,98.233764 537.68374,361.19218 354.13258,492.25839 169.6692,623.97597 -94.424883,579.46243 -226.05526,395.11659 -358.337,209.85853 -313.6308,-55.371222 -128.49028,-187.56577 57.56247,-320.41167 323.92788,-275.51281 456.6866,-89.577613 590.09665,97.269827 545.00514,364.7709 358.27526,498.09379 170.63314,632.068 -98.003606,586.78383 -231.89066,399.25928 -284.04189,326.21534 -311.95111,237.10132 -310.8301,147.36105"
       id="path841"
       style="fill:none;fill-rule:evenodd;stroke:#ffffff;stroke-width:2.83460355;stroke-miterlimit:4;stroke-dasharray:none;stroke-opacity:1" />
  </g>
</svg>
