<?xml version="1.0" encoding="UTF-8" standalone="no"?>
<!-- Created with Inkscape (http://www.inkscape.org/) -->

<svg
   xmlns:dc="http://purl.org/dc/elements/1.1/"
   xmlns:cc="http://creativecommons.org/ns#"
   xmlns:rdf="http://www.w3.org/1999/02/22-rdf-syntax-ns#"
   xmlns:svg="http://www.w3.org/2000/svg"
   xmlns="http://www.w3.org/2000/svg"
   xmlns:sodipodi="http://sodipodi.sourceforge.net/DTD/sodipodi-0.dtd"
   xmlns:inkscape="http://www.inkscape.org/namespaces/inkscape"
   width="38.629166mm"
   height="58.208332mm"
   viewBox="0 0 38.629166 58.208332"
   version="1.1"
   id="svg5227"
   sodipodi:docname="me.svg"
   inkscape:version="0.92.2pre0 (973e216, 2017-07-25)">
  <defs
     id="defs5221" />
  <sodipodi:namedview
     id="base"
     pagecolor="#ffffff"
     bordercolor="#666666"
     borderopacity="1.0"
     inkscape:pageopacity="0.0"
     inkscape:pageshadow="2"
     inkscape:zoom="2.209091"
     inkscape:cx="72.999998"
     inkscape:cy="113.73768"
     inkscape:document-units="mm"
     inkscape:current-layer="layer1"
     showgrid="false"
     fit-margin-top="0"
     fit-margin-left="0"
     fit-margin-right="0"
     fit-margin-bottom="0"
     inkscape:window-width="1366"
     inkscape:window-height="659"
     inkscape:window-x="0"
     inkscape:window-y="31"
     inkscape:window-maximized="1" />
  <metadata
     id="metadata5224">
    <rdf:RDF>
      <cc:Work
         rdf:about="">
        <dc:format>image/svg+xml</dc:format>
        <dc:type
           rdf:resource="http://purl.org/dc/dcmitype/StillImage" />
        <dc:title></dc:title>
      </cc:Work>
    </rdf:RDF>
  </metadata>
  <g
     inkscape:label="Layer 1"
     inkscape:groupmode="layer"
     id="layer1"
     transform="translate(-69.887802,-100.83035)">
    <path
       style="fill:#000000;stroke-width:0.99999994"
       d="M 86.167969 12.105469 C 79.307113 12.406319 71.167969 13.767083 71.167969 14.613281 C 71.167969 15.086327 69.817971 15.472656 68.167969 15.472656 C 66.517971 15.472656 65.167969 15.814671 65.167969 16.232422 C 65.167969 17.726658 60.966681 19.671732 59.945312 18.650391 C 59.296414 18.001484 57.795551 18.350312 55.5625 19.667969 C 53.239304 21.03869 52.167969 21.273855 52.167969 20.416016 C 52.167969 19.574012 51.544389 19.727121 50.269531 20.880859 C 48.844544 22.170359 46.912264 22.534175 42.519531 22.341797 C 39.301086 22.20082 36.105469 21.667167 35.417969 21.15625 C 34.730469 20.645258 34.167969 20.522951 34.167969 20.884766 C 34.167969 21.246466 33.267966 21.06128 32.167969 20.472656 C 30.75379 19.715806 30.167969 19.71447 30.167969 20.46875 C 30.167969 21.05537 29.414626 21.824349 28.494141 22.177734 C 24.299436 23.78736 17.768205 30.663005 15.173828 36.199219 C 13.943259 38.825159 12.629213 41.197507 12.253906 41.472656 C 11.878599 41.747806 10.484557 43.547629 9.15625 45.472656 C 7.8279426 47.397645 6.0833649 49.474813 5.2792969 50.087891 C 4.1220358 50.970297 3.7572657 54.661923 3.53125 67.802734 C 3.2695555 83.017336 4.0331434 88.626851 5.6640625 83.488281 C 6.0157097 82.380313 6.946438 81.472656 7.734375 81.472656 C 8.522312 81.472656 9.1679688 80.996525 9.1679688 80.414062 C 9.1679688 79.827859 9.7206029 79.696476 10.404297 80.119141 C 11.888007 81.03613 18.043109 80.610086 20.230469 79.439453 C 21.090893 78.978955 24.319846 78.385661 27.40625 78.121094 C 31.657704 77.756369 33.150683 77.983519 33.5625 79.056641 C 33.861461 79.835752 34.930241 80.472656 35.9375 80.472656 C 36.944763 80.472656 38.362519 81.03516 39.089844 81.722656 C 40.179897 82.753031 40.216187 82.589516 39.291016 80.789062 C 37.467416 77.240276 37.995647 76.961373 40.666016 80.066406 C 42.040343 81.664466 43.165343 83.509701 43.166016 84.166016 C 43.166688 84.822331 44.12762 86.031809 45.300781 86.853516 C 46.694686 87.829805 47.255707 89.032679 46.917969 90.324219 C 46.561106 91.688817 46.982562 92.452811 48.283203 92.792969 C 49.319311 93.063961 50.167969 93.827166 50.167969 94.488281 C 50.167969 95.291922 49.28256 95.466435 47.494141 95.017578 C 45.134128 94.425251 44.974522 94.533241 46.136719 95.933594 C 47.949528 98.117896 46.806962 98.902229 42.207031 98.630859 C 39.876265 98.493285 36.478438 99.255631 33.78125 100.52344 C 31.295304 101.69188 28.714223 102.31012 28.044922 101.89648 C 27.205062 101.3774 27.026096 101.66026 27.466797 102.80859 C 27.9715 104.12376 27.500432 104.47266 25.21875 104.47266 C 23.630993 104.47266 21.619979 104.74631 20.75 105.08008 C 18.740062 105.85137 18.676611 108.47266 20.667969 108.47266 C 21.492968 108.47266 22.167969 108.97891 22.167969 109.59766 C 22.167969 111.11026 16.312948 109.91439 14.154297 107.96094 C 13.249901 107.14248 11.594913 106.47266 10.476562 106.47266 C 8.6481599 106.47266 8.4627604 107.0432 8.640625 112.13672 C 8.7204648 114.42316 8.6482379 115.97968 8.3613281 117.15625 L 13.236328 133.88477 L 43.978516 179.52734 C 45.613384 181.74143 47.42109 184.41139 49.330078 187.47266 L 49.357422 187.51367 L 56.166016 197.625 C 57.789508 199.85929 59.232783 201.71951 60.085938 202.57812 C 64.040872 206.55838 69.726804 209.86458 71.128906 208.99805 C 71.62475 208.69153 72.339373 208.94024 72.716797 209.55078 L 72.716797 209.55273 C 74.201652 211.95527 98.167969 209.02723 98.167969 206.44336 C 98.167969 205.98422 99.067762 205.32384 100.16797 204.97461 C 101.26818 204.62538 103.80686 202.79412 105.80859 200.90625 C 107.81031 199.01838 109.83553 197.47461 110.30859 197.47461 C 110.78167 197.47461 111.16797 196.7996 111.16797 195.97461 C 111.16797 195.14961 111.61797 194.47461 112.16797 194.47461 C 112.71797 194.47461 113.16797 193.7996 113.16797 192.97461 C 113.16797 192.14961 113.54611 191.47461 114.00781 191.47461 C 114.69992 191.47461 117.22304 187.30496 117.63867 185.47461 C 117.70103 185.19946 118.75104 182.7654 119.97266 180.06641 C 121.19431 177.36745 122.46907 173.4429 122.80469 171.34375 C 123.19439 168.90637 124.65293 166.2518 126.83984 164 C 128.72333 162.06061 129.79325 160.47461 129.2168 160.47461 C 128.64031 160.47461 128.16797 159.5746 128.16797 158.47461 C 128.16797 155.95616 129.22957 155.94953 132.39844 158.44141 C 135.02128 160.5045 136.40381 160.25074 135.49219 157.875 C 135.19625 157.10379 135.47707 156.47266 136.11914 156.47266 C 136.76049 156.47266 137.00775 156.02265 136.66797 155.47266 C 136.32781 154.92266 136.419 154.47266 136.86914 154.47266 C 139.31604 154.47266 142.26118 143.26579 140.15625 141.96484 C 139.649 141.65152 139.45677 140.17473 139.72852 138.68359 C 140.00026 137.19238 139.75876 135.29765 139.19531 134.47266 C 138.28233 133.13935 138.05886 133.13935 137.18359 134.47266 C 136.64203 135.29765 136.19115 137.33669 136.18359 139.00195 C 136.17603 140.82357 135.3327 142.74302 134.07227 143.82227 C 131.67476 145.87508 130.2538 145.27858 132.13672 143.00977 C 134.11065 140.63135 132.61553 138.1445 129.6582 138.88672 C 127.58472 139.40716 127.16797 139.15206 127.16797 137.36914 C 127.16797 135.65932 127.44652 135.46034 128.55078 136.37695 C 129.62179 137.26578 130.07461 137.15926 130.55469 135.9082 C 130.8956 135.01956 130.92736 133.89329 130.625 133.4043 C 129.79509 132.06147 132.03485 128.47266 133.70312 128.47266 C 134.50881 128.47266 135.20622 127.91015 135.25195 127.22266 C 135.55545 122.67078 136.03218 121.04495 137.34961 120.07422 C 138.17109 119.46881 138.65722 118.29769 138.42969 117.47266 C 138.06156 116.13931 138.14394 116.13931 139.16797 117.47266 C 140.03794 118.605 140.44516 118.66659 140.82812 117.72266 C 141.10705 117.03516 141.94291 116.47266 142.68555 116.47266 C 143.42819 116.47266 144.1777 115.23515 144.35156 113.72266 C 144.70911 110.61536 142.58765 99.126993 141.16602 96.470703 C 140.65177 95.509758 140.41738 91.494919 140.64453 87.548828 C 141.04716 80.557609 141.00208 80.388621 138.86328 80.988281 C 137.65708 81.326549 137.11797 81.237692 137.66797 80.789062 C 138.21797 80.340547 138.81342 79.125069 138.99219 78.087891 C 139.23181 76.69831 138.89016 76.366128 137.69141 76.826172 C 136.57512 77.254581 136.2904 77.060877 136.78711 76.210938 C 137.18521 75.529753 136.58073 75.787071 135.44336 76.783203 C 133.95483 78.086762 133.25876 78.246731 132.96094 77.353516 C 132.68465 76.524514 131.90331 76.393579 130.60742 76.957031 C 129.54039 77.421044 128.36861 77.839097 128.00195 77.886719 C 126.42396 78.091191 125.98837 79.472656 127.50195 79.472656 C 128.4186 79.472656 129.16797 79.922659 129.16797 80.472656 C 129.16797 81.022653 128.71797 81.472656 128.16797 81.472656 C 126.76429 81.472656 126.91411 84.222658 128.34375 84.699219 C 130.17153 85.308479 128.30142 87.472656 125.94727 87.472656 C 124.79084 87.472656 122.41397 89.08021 120.66602 91.044922 C 118.11706 93.910031 116.03571 94.998717 110.14648 96.544922 C 102.15716 98.642408 95.669017 99.089009 96.667969 97.472656 C 97.007899 96.922659 98.691189 96.472656 100.41016 96.472656 C 102.12911 96.472656 106.11945 95.747363 109.27734 94.861328 C 113.60348 93.647457 114.8778 92.882914 114.44531 91.755859 C 114.00749 90.614782 113.017 90.428265 110.26953 90.970703 C 108.28842 91.361846 105.74497 91.777366 104.61719 91.894531 C 103.48942 92.011697 102.1053 92.393337 101.54102 92.742188 C 99.948016 93.726716 96.167969 92.399368 96.167969 90.855469 C 96.167969 90.094612 95.466833 89.472656 94.609375 89.472656 C 93.751917 89.472656 93.328038 89.022653 93.667969 88.472656 C 94.007899 87.922659 93.79999 87.472656 93.207031 87.472656 C 92.579422 87.472656 92.372666 88.43933 92.710938 89.787109 C 93.217514 91.805566 92.932116 92.094936 90.480469 92.037109 C 88.933879 91.999314 87.125098 91.619967 86.462891 91.191406 C 85.800687 90.762808 84.039557 90.717435 82.548828 91.091797 C 80.326356 91.649617 79.95007 91.484757 80.453125 90.173828 C 80.882268 89.055542 80.630799 88.741908 79.617188 89.130859 C 76.937533 90.159155 78.137258 87.367101 81.917969 83.777344 C 88.568316 77.462925 92.970446 76.109973 107.40039 75.941406 C 118.96092 75.806477 120.18848 75.960297 120.71875 77.632812 C 121.04001 78.644932 122.05892 79.437996 122.98438 79.394531 C 124.02491 79.345775 124.19096 79.122433 123.41797 78.810547 C 122.73047 78.53313 122.16797 77.402538 122.16797 76.296875 C 122.16797 75.127603 121.33127 74.067924 120.16797 73.763672 C 119.06798 73.47605 118.16797 72.862388 118.16797 72.402344 C 118.16797 71.9423 116.67762 70.858821 114.85547 69.994141 C 111.07136 68.198449 100.78494 68.536551 96.962891 70.582031 C 95.700226 71.257773 94.442967 71.774689 94.167969 71.730469 C 93.89297 71.686248 91.867967 72.470439 89.667969 73.472656 C 87.46797 74.474874 85.217969 75.366637 84.667969 75.455078 C 84.117968 75.543519 82.236246 76.708229 80.486328 78.042969 C 78.736414 79.377671 76.238365 80.875749 74.935547 81.371094 C 72.883755 82.151188 72.391486 81.875612 71.257812 79.314453 C 70.537836 77.688198 70.223501 76.083291 70.558594 75.748047 C 70.893649 75.412803 71.167969 75.889803 71.167969 76.806641 C 71.167969 77.723327 71.654169 78.472656 72.25 78.472656 C 72.845831 78.472656 73.163296 77.962533 72.955078 77.337891 C 72.746864 76.713248 74.173166 74.513105 76.123047 72.449219 C 82.039988 66.186353 97.995355 59.460599 103.59961 60.867188 C 105.57841 61.363854 105.99001 61.174851 105.5332 59.984375 C 104.78653 58.038636 106.47744 58.063443 110.32812 60.054688 C 112.01135 60.925112 113.0743 61.131221 112.69141 60.511719 C 111.54911 58.663416 114.15633 56.510398 117.11914 56.855469 C 118.6359 57.031973 122.04399 58.667444 124.69336 60.490234 C 129.58388 63.854997 135.04472 65.002505 135.31836 62.722656 C 135.51112 61.115223 135.51112 56.918233 135.31836 54.914062 C 135.23597 54.056602 134.71797 53.632877 134.16797 53.972656 C 133.61797 54.312436 133.16797 53.663861 133.16797 52.53125 C 133.16797 51.39879 132.71797 50.472656 132.16797 50.472656 C 131.61797 50.472656 131.16797 49.846226 131.16797 49.080078 C 131.16797 48.313892 130.39246 47.388603 129.44531 47.025391 C 127.97035 46.459331 127.9342 46.231036 129.19531 45.433594 C 130.19137 44.803735 130.26394 44.499658 129.41797 44.488281 C 128.73047 44.480722 128.16797 43.776149 128.16797 42.923828 C 128.16797 42.071507 127.45636 39.99575 126.58594 38.3125 C 125.41814 36.053892 125.35232 35.462776 126.33594 36.054688 C 127.39708 36.693238 127.38777 36.511162 126.29492 35.164062 C 125.54004 34.233506 125.22039 33.472656 125.58398 33.472656 C 125.94757 33.472656 125.32849 32.48886 124.20703 31.285156 C 123.08561 30.081452 122.16797 28.561532 122.16797 27.908203 C 122.16797 26.038093 114.36305 18.234775 113.20703 18.949219 C 112.63589 19.302227 112.16797 19.150289 112.16797 18.611328 C 112.16797 18.072594 110.70547 17.319724 108.91797 16.9375 C 107.13047 16.555314 105.15646 15.830235 104.53125 15.328125 C 103.00401 14.101517 90.536237 11.913847 86.167969 12.105469 z M 129.95312 57.472656 C 130.90874 57.472656 132.16797 59.731662 132.16797 61.447266 C 132.16797 62.942485 129.67047 63.235695 128.41211 61.888672 C 126.74284 60.101447 126.83884 59.132097 128.61719 59.814453 C 129.5858 60.185981 129.88129 59.890417 129.50977 58.921875 C 129.204 58.124886 129.40321 57.472656 129.95312 57.472656 z M 139.33984 68.376953 C 138.95097 68.365615 138.65048 68.627532 138.58203 69.222656 C 138.53441 69.635154 138.15721 70.737576 137.74414 71.671875 C 137.30088 72.674697 137.5408 73.989484 138.33008 74.882812 C 140.22857 77.030945 141.41401 76.823296 140.66797 74.472656 C 140.31232 73.351913 140.48843 72.472656 141.06836 72.472656 C 141.69576 72.472656 141.80105 71.655659 141.33594 70.398438 C 140.87888 69.16291 139.98799 68.393507 139.33984 68.376953 z M 35.050781 77.472656 C 35.600782 77.472656 36.328038 77.922659 36.667969 78.472656 C 37.007899 79.022653 36.835176 79.472656 36.285156 79.472656 C 35.735156 79.472656 35.007899 79.022653 34.667969 78.472656 C 34.328038 77.922659 34.500766 77.472656 35.050781 77.472656 z M 103.03516 77.505859 C 100.78409 77.564202 97.662174 78.108676 94.845703 79.068359 C 92.248846 79.953185 90.167969 81.287887 90.167969 82.068359 C 90.167969 82.841651 90.28047 83.47045 90.417969 83.462891 C 90.555468 83.455332 93.142967 82.786527 96.167969 81.974609 C 99.192967 81.162653 103.46797 80.441393 105.66797 80.371094 C 107.86797 80.300795 108.88047 80.036608 107.91797 79.785156 C 106.95547 79.533818 106.16797 78.91006 106.16797 78.400391 C 106.16797 77.856139 105.29983 77.567807 103.94336 77.511719 C 103.66076 77.500049 103.35674 77.497525 103.03516 77.505859 z M 31.044922 87.492188 C 28.23095 87.47329 25.170543 87.584599 22.167969 87.835938 C 18.318728 88.157574 12.167969 90.508093 12.167969 91.658203 C 12.167969 92.224376 11.380471 92.390821 10.417969 92.027344 C 8.7678306 91.404024 8.765458 91.464975 10.375 93.091797 C 11.922169 94.655576 11.933608 94.925841 10.501953 95.972656 C 9.4276641 96.758155 9.1486672 97.842109 9.6308594 99.361328 L 9.6328125 99.361328 C 10.320611 101.5284 10.431811 101.48764 13.380859 98.035156 C 15.64079 95.389411 18.09841 93.958297 22.958984 92.457031 C 29.755622 90.357768 39.032905 89.626763 42.917969 90.882812 C 46.622461 92.080431 45.457382 89.980688 41.654297 88.605469 C 39.740665 87.913399 35.734873 87.523557 31.044922 87.492188 z M 99.222656 89.080078 C 98.095612 89.152267 97.20264 89.721516 97.677734 90.490234 C 97.95175 90.931759 98.961558 91.146954 99.921875 90.962891 C 100.88219 90.778828 101.89297 90.585726 102.16797 90.535156 C 102.44297 90.484511 102.03293 90.04343 101.25781 89.552734 C 100.65909 89.173723 99.898882 89.03684 99.222656 89.080078 z M 94.533203 90.820312 C 94.624139 90.835431 94.731866 90.988111 94.851562 91.287109 C 95.140432 92.008999 95.10378 92.870905 94.771484 93.203125 C 94.439226 93.535345 94.202667 92.944962 94.246094 91.890625 C 94.275952 91.162537 94.381644 90.797372 94.533203 90.820312 z M 34.667969 92.554688 L 30.167969 92.865234 C 25.90928 93.160038 18.167969 95.761782 18.167969 96.898438 C 18.167969 97.187948 19.40547 96.924872 20.917969 96.316406 C 22.430468 95.707109 26.142967 94.611026 29.167969 93.880859 L 34.667969 92.554688 z M 50.226562 96.474609 C 50.809014 96.474609 51.007899 96.924613 50.667969 97.474609 C 50.328038 98.024606 49.851911 98.474609 49.609375 98.474609 C 49.366843 98.474609 49.167969 98.024606 49.167969 97.474609 C 49.167969 96.924613 49.644104 96.474609 50.226562 96.474609 z M 3.6347656 100.93555 C 3.4539152 100.86827 3.3261719 101.44141 3.3261719 102.47266 C 3.3261719 103.8478 3.5526797 104.41015 3.8300781 103.72266 C 4.1074954 103.03512 4.1074954 101.91019 3.8300781 101.22266 C 3.7607238 101.05069 3.6950869 100.95822 3.6347656 100.93555 z M 36.65625 106.47266 C 37.310656 106.45376 37.13356 106.80943 36.263672 107.85742 C 34.677468 109.7688 32.824005 110.00671 33.417969 108.22266 C 33.646895 107.53516 34.681833 106.80845 35.71875 106.60742 C 36.126523 106.52843 36.438111 106.47946 36.65625 106.47266 z M 142.10938 119.47266 C 140.84845 119.47266 140.91012 124.123 142.20312 126.53906 C 143.73206 129.39586 144.66797 128.89579 144.66797 125.22266 C 144.66797 121.7614 143.64986 119.47266 142.10938 119.47266 z M 93.138672 124.0957 C 94.925568 124.01633 102.9151 127.4095 106.09961 129.68164 C 107.41647 130.62127 108.86971 131.15569 109.33008 130.87109 C 109.79044 130.5865 110.16797 130.76301 110.16797 131.26172 C 110.16797 132.15841 116.2683 135.16598 119.16406 135.69727 C 119.98709 135.84807 121.21081 136.64766 121.88281 137.47266 C 122.55481 138.29761 123.11782 138.53488 123.13672 138 C 123.15562 137.46512 123.88845 138.05632 124.76953 139.31445 C 125.64891 140.5699 126.20968 141.73727 126.01953 141.91211 C 124.44233 143.30657 121.32384 143.32382 120.79297 141.93945 C 120.45659 141.06343 119.71572 140.63445 119.14648 140.98633 C 118.57717 141.3382 117.33777 140.72027 116.39062 139.61328 C 115.44352 138.50645 113.09297 136.71795 111.16797 135.63867 C 97.951965 128.2291 92.160355 124.59504 92.867188 124.1582 C 92.927924 124.12041 93.019541 124.10099 93.138672 124.0957 z M 89.925781 125.54492 C 90.463668 125.52602 91.133085 127.73892 91.382812 131.72266 C 91.78012 138.06058 90.941304 141.3439 88.564453 142.75 C 87.842601 143.17705 87.500662 144.30206 87.804688 145.25 C 88.23511 146.592 88.14001 146.66661 87.375 145.59375 C 86.018788 143.69151 83.949651 145.20729 84.695312 147.55664 C 85.035243 148.62765 84.833002 149.47266 84.236328 149.47266 C 83.649265 149.47266 83.167969 149.02265 83.167969 148.47266 C 83.167969 146.9178 79.44903 147.29601 78.828125 148.91406 C 78.523835 149.70705 77.239716 151.00741 75.972656 151.80273 C 72.997646 153.66997 67.22147 154.54994 64.667969 153.52539 C 63.567967 153.08394 62.330466 152.91788 61.917969 153.15625 C 61.505479 153.39474 61.167969 153.22353 61.167969 152.77539 C 61.167969 152.32721 63.305469 150.97949 65.917969 149.7793 C 68.530469 148.57911 71.588828 146.78174 72.714844 145.78516 C 73.840859 144.78857 77.215857 142.68399 80.214844 141.10938 C 87.527629 137.2696 89.167969 135.20902 89.167969 129.86133 C 89.167969 126.92607 89.50741 125.56023 89.925781 125.54492 z M 41.603516 130.76562 C 42.274983 130.78452 42.097696 131.88868 40.552734 134.06055 C 39.515734 135.51831 37.04942 139.44761 35.072266 142.79102 C 31.938096 148.09097 29.167969 151.00141 29.167969 148.99414 C 29.167969 147.15253 34.585169 137.46063 37.564453 133.97266 C 39.411928 131.80967 40.932045 130.74587 41.603516 130.76562 z M 113.39258 144.26367 C 114.76905 144.28257 115.79252 144.80035 115.99805 145.85352 C 116.19987 146.88759 115.93416 148.01264 115.4082 148.35352 C 112.43903 150.27741 106.41258 155.46327 103.35938 158.72266 C 99.825788 162.49485 97.811393 163.32277 96.667969 161.47266 C 96.328038 160.92266 96.765895 160.47266 97.640625 160.47266 C 98.515344 160.47266 99.490067 159.79769 99.806641 158.97266 C 100.12321 158.14766 101.00924 157.47266 101.77539 157.47266 C 102.62212 157.47266 103.16797 156.41462 103.16797 154.77344 C 103.16797 152.77796 102.87599 152.3662 102.04688 153.19531 C 101.42986 153.81168 100.34501 154.09405 99.636719 153.82227 C 98.928428 153.55052 98.053141 154.2606 97.691406 155.40039 C 96.912672 157.85395 95.167969 158.16835 95.167969 155.85547 C 95.167969 154.6391 94.611023 154.41275 92.917969 154.9375 C 91.680472 155.32105 89.542968 155.89057 88.167969 156.20312 C 86.792969 156.51569 85.442967 157.06358 85.167969 157.42188 C 83.445895 159.66656 65.167969 161.47107 65.167969 159.39648 C 65.167969 158.80487 66.405466 158.43503 67.917969 158.57227 C 71.79799 158.9249 75.698233 157.88525 89.337891 152.86914 C 95.913758 150.45081 102.10477 148.47266 103.0957 148.47266 C 104.08664 148.47266 105.98426 147.61704 107.3125 146.57227 C 109.26788 145.03415 111.6228 144.23842 113.39258 144.26367 z M 24.490234 148.67773 C 24.69637 148.70419 24.992781 148.89696 25.351562 149.25586 C 26.002356 149.90669 26.301761 150.67086 26.017578 150.95508 C 25.350189 151.62247 24.167969 150.44025 24.167969 149.10547 C 24.167969 148.79215 24.284099 148.65158 24.490234 148.67773 z M 130.22656 152.47266 C 130.80891 152.47266 131.00775 152.92266 130.66797 153.47266 C 130.32819 154.02265 129.85201 154.47266 129.60938 154.47266 C 129.36673 154.47266 129.16797 154.02265 129.16797 153.47266 C 129.16797 152.92266 129.6441 152.47266 130.22656 152.47266 z M 42.90625 154.49805 C 44.729203 154.42397 47.45989 154.80604 51.091797 155.64453 C 55.876868 156.74902 58.021819 158.47266 54.611328 158.47266 C 53.253911 158.47266 53.285859 158.88835 54.861328 161.72266 C 55.854921 163.51015 57.005467 165.12333 57.417969 165.30664 C 57.830455 165.48995 58.167969 166.27749 58.167969 167.05664 C 58.167969 167.83579 57.771849 168.47266 57.287109 168.47266 C 55.75837 168.47266 50.167969 162.16769 50.167969 160.44336 C 50.167969 158.28797 46.242714 156.54475 42.849609 157.19336 C 40.835631 157.57838 40.167969 157.30409 40.167969 156.08984 C 40.167969 155.10358 41.083301 154.57231 42.90625 154.49805 z M 93.941406 163.5332 C 94.449061 163.5332 95.198588 163.84616 96.167969 164.47266 C 97.380925 165.25664 97.237407 165.44569 95.417969 165.45703 C 94.180468 165.46459 93.167969 165.02265 93.167969 164.47266 C 93.167969 163.8462 93.433744 163.5332 93.941406 163.5332 z M 88.167969 165.47266 C 88.717969 165.47266 89.167969 166.14766 89.167969 166.97266 C 89.167969 167.79765 88.305021 168.47266 87.25 168.47266 C 86.194983 168.47266 84.619987 168.74627 83.75 169.08008 C 82.880017 169.41381 82.167969 169.18892 82.167969 168.58008 C 82.167969 167.48953 83.466805 167.0802 85.917969 167.39844 C 86.605469 167.48763 87.167969 167.08962 87.167969 166.51562 C 87.167969 165.94152 87.617968 165.47266 88.167969 165.47266 z M 61.609375 167.47266 C 62.466836 167.47266 63.167969 167.92266 63.167969 168.47266 C 63.167969 169.02265 62.744105 169.47266 62.226562 169.47266 C 61.709025 169.47266 61.007899 169.02265 60.667969 168.47266 C 60.328038 167.92266 60.751914 167.47266 61.609375 167.47266 z M 70.167969 168.47266 C 70.717969 168.47266 71.167969 168.92266 71.167969 169.47266 C 71.167969 170.02265 70.717969 170.47266 70.167969 170.47266 C 69.617968 170.47266 69.167969 170.02265 69.167969 169.47266 C 69.167969 168.92266 69.617968 168.47266 70.167969 168.47266 z M 75.667969 168.47266 C 76.492972 168.47266 77.167969 168.92266 77.167969 169.47266 C 77.167969 170.02265 76.492972 170.47266 75.667969 170.47266 C 74.84297 170.47266 74.167969 170.02265 74.167969 169.47266 C 74.167969 168.92266 74.84297 168.47266 75.667969 168.47266 z M 140.53516 180.60352 C 140.37075 180.6073 140.43062 180.97696 140.71484 181.72266 C 141.54403 183.90057 139.84195 184.00387 137.74023 181.90234 C 136.31172 180.47361 136.16165 180.49466 136.08984 182.15039 C 136.0392 183.32095 135.82036 183.50075 135.48047 182.65039 C 134.68284 180.65446 130.16797 185.28395 130.16797 188.09766 C 130.16797 189.34947 129.42114 190.79159 128.50781 191.30273 C 127.59445 191.81388 126.35694 193.67968 125.75781 195.44922 C 125.15864 197.21879 124.27791 198.59065 123.80078 198.49805 C 122.73809 198.29168 119.16797 203.99439 119.16797 205.89844 C 119.16797 206.65635 117.81796 207.7471 116.16797 208.32227 C 114.51798 208.89747 113.16797 209.66489 113.16797 210.02734 C 113.16797 210.3898 113.76862 210.45686 114.50195 210.17578 C 115.23529 209.89421 115.83398 210.29594 115.83398 211.06836 C 115.83398 211.84093 115.47416 212.47266 115.0332 212.47266 C 114.59213 212.47266 114.49029 213.14762 114.80664 213.97266 C 115.20799 215.01853 116.83909 215.47266 120.19531 215.47266 C 124.79587 215.47266 125.04514 215.32905 125.80664 212.22266 C 126.24484 210.43513 126.61587 208.29765 126.63477 207.47266 C 126.69524 204.70517 128.63573 202.87961 133.41797 201.08789 C 136.03045 200.10911 138.16797 198.89515 138.16797 198.39062 C 138.16797 197.88614 138.84297 197.47266 139.66797 197.47266 C 140.49296 197.47266 141.16797 197.0038 141.16797 196.42969 C 141.16797 195.85546 141.73047 195.45768 142.41797 195.54688 C 145.48532 195.94515 146.42664 195.4894 145.31055 194.14453 C 144.34261 192.97821 143.50738 190.10441 143.22656 186.97266 C 143.17705 186.42262 142.74379 186.59362 142.26367 187.35156 C 141.18276 189.05813 139.1647 187.95121 139.18359 185.66406 C 139.19493 184.35559 139.39035 184.27407 140.04492 185.30664 C 140.67697 186.30379 141.04331 186.05562 141.49609 184.32422 C 141.82945 183.04972 141.64087 181.54972 141.07617 180.99023 C 140.81349 180.7302 140.63388 180.60121 140.53516 180.60352 z M 135.57812 184.91992 C 135.82032 184.95318 135.88552 185.11894 135.71289 185.39844 C 135.40599 185.89518 135.72046 186.51908 136.41211 186.78516 C 137.10304 187.05123 136.6555 187.21905 135.41797 187.1582 C 132.82143 187.03008 132.46036 185.95916 134.7207 185.0918 C 134.93425 185.00978 135.12214 184.95696 135.2793 184.93164 C 135.39716 184.91265 135.4974 184.90884 135.57812 184.91992 z M 136.16797 188.47266 C 136.718 188.47266 137.16797 188.92262 137.16797 189.47266 C 137.16797 190.02265 136.718 190.47266 136.16797 190.47266 C 135.61797 190.47266 135.16797 190.02265 135.16797 189.47266 C 135.16797 188.92262 135.61797 188.47266 136.16797 188.47266 z M 118.80469 209.81055 C 119.02707 209.85683 119.16797 210.04604 119.16797 210.35547 C 119.16797 210.90547 118.718 211.63288 118.16797 211.97266 C 117.61797 212.31244 117.16797 212.13973 117.16797 211.58984 C 117.16797 211.03985 117.61797 210.31244 118.16797 209.97266 C 118.30554 209.88762 118.43709 209.83556 118.55664 209.8125 C 118.64631 209.79521 118.73056 209.79512 118.80469 209.81055 z "
       transform="matrix(0.26458333,0,0,0.26458333,69.887802,100.83035)"
       id="path5832" />
  </g>
</svg>
